# xmcd
#
# Track frame offsets:
#	150
#	21750
#	34758
#	43607
#	59734
#
# Disc length: 1033 seconds
#
# Revision: 0
# Processed by: cddbd v1.5.2PL0 Copyright (c) Steve Scherf et al.
# Submitted via: dBpowerAMP V4.0
#
DISCID=3e040705
DTITLE=The Great Outdoors - Fading Fast
DYEAR=2001
DGENRE=Farmercore
TTITLE0=Fading Fast
TTITLE1=The Return of the Romeo Uncle
TTITLE2=Valerie's Theme
TTITLE3=The Birds and the Bees
TTITLE4=Head in the Clouds (acoustix mix)
EXTD=
EXTT0=
EXTT1=
EXTT2=
EXTT3=
EXTT4=
PLAYORDER=
